<svg width="426" height="300" viewBox="0 0 426 300" fill="none" xmlns="http://www.w3.org/2000/svg">
<path d="M47.7498 0H379C410.25 0 426 14.75 426 44.75V255.25C426 285 410.25 300 379 300H47.7498C16.4998 300 0.749756 285 0.749756 255.25V44.75C0.749756 14.75 16.4998 0 47.7498 0ZM213.25 215L381.75 76.75C387.75 71.75 392.5 60.25 385 50C377.75 39.75 364.5 39.5 355.75 45.75L213.25 142.25L70.9998 45.75C62.2498 39.5 48.9998 39.75 41.7498 50C34.2498 60.25 38.9998 71.75 44.9998 76.75L213.25 215Z" fill="white"/>
</svg>
