<svg width="438" height="438" viewBox="0 0 438 438" fill="none" xmlns="http://www.w3.org/2000/svg">
<path d="M219 0.25C98.1992 0.25 0.25 98.1992 0.25 219C0.25 339.801 98.1992 437.75 219 437.75C339.801 437.75 437.75 339.801 437.75 219C437.75 98.1992 339.801 0.25 219 0.25ZM300.543 309.625C280.719 327.887 253.668 338.629 221.393 338.629C174.664 338.629 134.234 311.822 114.557 272.76C106.451 256.598 101.812 238.336 101.812 219C101.812 199.664 106.451 181.402 114.557 165.24C134.234 126.129 174.664 99.3223 221.393 99.3223C253.619 99.3223 280.67 111.188 301.422 130.475L267.145 164.801C254.742 152.936 238.971 146.93 221.441 146.93C190.289 146.93 163.922 167.975 154.498 196.246C152.105 203.424 150.738 211.09 150.738 219C150.738 226.91 152.105 234.576 154.498 241.754C163.922 270.025 190.289 291.07 221.393 291.07C237.506 291.07 251.178 286.822 261.871 279.645C274.566 271.148 282.965 258.502 285.748 243.512H221.393V197.223H334.039C335.455 205.084 336.188 213.238 336.188 221.686C336.188 258.16 323.15 288.775 300.543 309.625Z" fill="white"/>
</svg>
