<svg width="418" height="293" viewBox="0 0 418 293" fill="none" xmlns="http://www.w3.org/2000/svg">
<path d="M408.855 46.0624C406.482 37.2583 401.845 29.2292 395.404 22.7742C388.964 16.3193 380.945 11.6637 372.147 9.27073C339.522 0.3124 209.001 0.166571 209.001 0.166571C209.001 0.166571 78.5008 0.020733 45.8549 8.58323C37.0617 11.0863 29.0595 15.8078 22.6167 22.2944C16.1739 28.781 11.5067 36.8149 9.06327 45.6249C0.4591 78.2499 0.375763 145.917 0.375763 145.917C0.375763 145.917 0.29243 213.917 8.8341 246.208C13.6258 264.062 27.6883 278.167 45.5633 282.979C78.5216 291.937 208.688 292.083 208.688 292.083C208.688 292.083 339.209 292.229 371.834 283.687C380.636 281.299 388.662 276.654 395.118 270.212C401.575 263.77 406.238 255.755 408.647 246.958C417.272 214.354 417.334 146.708 417.334 146.708C417.334 146.708 417.751 78.6874 408.855 46.0624ZM167.251 208.604L167.355 83.6041L275.834 146.208L167.251 208.604Z" fill="white"/>
</svg>
