<svg width="479" height="480" viewBox="0 0 479 480" fill="none" xmlns="http://www.w3.org/2000/svg">
<path d="M239 0.000610352C106.45 0.000610352 -1 107.451 -1 240.001C-1 372.551 106.45 480.001 239 480.001C371.55 480.001 479 372.551 479 240.001C479 107.451 371.55 0.000610352 239 0.000610352ZM180.25 339.476H131.65V183.076H180.25V339.476ZM155.65 163.876C140.3 163.876 130.375 153.001 130.375 139.551C130.375 125.826 140.6 115.276 156.275 115.276C171.95 115.276 181.55 125.826 181.85 139.551C181.85 153.001 171.95 163.876 155.65 163.876ZM357.75 339.476H309.15V252.801C309.15 232.626 302.1 218.926 284.525 218.926C271.1 218.926 263.125 228.201 259.6 237.126C258.3 240.301 257.975 244.801 257.975 249.276V339.451H209.35V232.951C209.35 213.426 208.725 197.101 208.075 183.051H250.3L252.525 204.776H253.5C259.9 194.576 275.575 179.526 301.8 179.526C333.775 179.526 357.75 200.951 357.75 247.001V339.476Z" fill="white"/>
</svg>
